<?xml version="1.0" standalone="no"?><!DOCTYPE svg PUBLIC "-//W3C//DTD SVG 1.1//EN" "http://www.w3.org/Graphics/SVG/1.1/DTD/svg11.dtd"><svg t="1630077850368" class="icon" viewBox="0 0 1024 1024" version="1.1" xmlns="http://www.w3.org/2000/svg" p-id="4554" xmlns:xlink="http://www.w3.org/1999/xlink" width="200" height="200"><defs><style type="text/css"></style></defs><path d="M493.184 960h2.112l0.96-0.128h0.32l1.152-0.256 0.96-0.128H499.2l0.896-0.256a30.72 30.72 0 0 0 1.408-0.384l0.64-0.192a28.928 28.928 0 0 0 0.832-0.256l0.64-0.192 1.472-0.576 0.64-0.256a29.12 29.12 0 0 0 0.768-0.384l0.512-0.256 1.088-0.64a39.68 39.68 0 0 0 1.152-0.64l1.664-1.024a30.912 30.912 0 0 0 1.344-1.024l1.024-0.768 0.832-0.704 1.984-2.048 96-96a31.36 31.36 0 1 0-44.416-44.288l-43.264 43.2V623.936a31.36 31.36 0 0 0-62.784 0v228.864l-43.264-43.264a31.36 31.36 0 1 0-44.352 44.416l96 96 0.768 0.896a31.232 31.232 0 0 0 16 8.576l0.64 0.064 0.704 0.128a33.536 33.536 0 0 0 1.728 0.256L491.52 960h3.84-2.176z m305.472-876.608c68.096 0 123.52 55.36 123.52 123.392v610.304c0 68.096-55.424 123.52-123.52 123.52h-144.384a31.36 31.36 0 0 1 0-62.72h144.448a60.8 60.8 0 0 0 60.672-60.8V206.848a60.8 60.8 0 0 0-60.736-60.8h-144.384a31.36 31.36 0 0 1 0-62.72h144.384z m-466.752 0a31.36 31.36 0 0 1 0 62.72H187.456a60.8 60.8 0 0 0-60.672 60.8v610.176a60.8 60.8 0 0 0 60.736 60.8h144.384a31.36 31.36 0 1 1 0 62.72H187.456A123.648 123.648 0 0 1 64 817.088V206.784c0-68.032 55.424-123.52 123.52-123.52l144.384 0.128z m358.08 397.184a31.36 31.36 0 1 1 0 62.784H296.192a31.36 31.36 0 0 1 0-62.784h393.792z m-196.928-49.28a31.36 31.36 0 0 0 31.488-31.36V171.072l43.2 43.264a31.36 31.36 0 1 0 44.352-44.416l-95.872-96a31.808 31.808 0 0 0-2.048-1.92l-0.576-0.576-0.576-0.448-1.216-0.96-1.216-0.832-1.152-0.768a29.44 29.44 0 0 0-1.024-0.64l-0.448-0.192-0.448-0.192-0.448-0.256a30.976 30.976 0 0 0-1.92-0.896l-1.472-0.64-0.64-0.192a30.912 30.912 0 0 0-0.896-0.256l-0.448-0.128a31.232 31.232 0 0 0-0.96-0.256l-0.576-0.128-0.896-0.192-0.64-0.064-0.896-0.256h-0.64l-0.96-0.128L495.488 64h-4.096l-1.6 0.064a31.36 31.36 0 0 0-19.008 8.96l-0.768 0.896-96.064 96.064a31.488 31.488 0 0 0 44.416 44.352l43.264-43.2V400c0 17.28 14.08 31.296 31.424 31.296z" fill="#2c2c2c" p-id="4555"></path></svg>