<?xml version="1.0" standalone="no"?><!DOCTYPE svg PUBLIC "-//W3C//DTD SVG 1.1//EN" "http://www.w3.org/Graphics/SVG/1.1/DTD/svg11.dtd"><svg t="1630077907144" class="icon" viewBox="0 0 1024 1024" version="1.1" xmlns="http://www.w3.org/2000/svg" p-id="6271" xmlns:xlink="http://www.w3.org/1999/xlink" width="200" height="200"><defs><style type="text/css"></style></defs><path d="M311.7 475.7c-17.5 0-31.8 14.1-32 31.7-0.2 17.7 14 32.1 31.7 32.3l432.3 4.3h0.3c17.5 0 31.8-14.1 32-31.7 0.2-17.7-14-32.1-31.7-32.3L312 475.7h-0.3z" p-id="6272" fill="#2c2c2c"></path><path d="M320.2 863.6l-111-0.6h-0.2c-26.5 0-48-21.5-48-48V209c0-26.4 21.5-48 47.9-48l111 0.6h0.2c17.6 0 31.9-14.2 32-31.8 0.1-17.7-14.1-32.1-31.8-32.2L209.2 97h-0.2c-61.8 0-112 50.2-112 112v606c0 61.7 50.2 111.9 111.9 112l111 0.6h0.2c17.6 0 31.9-14.2 32-31.8 0.1-17.6-14.2-32.1-31.9-32.2zM815 97l-111 0.6c-17.7 0.1-31.9 14.5-31.8 32.2 0.1 17.6 14.4 31.8 32 31.8h0.2l110.8-0.6c26.4 0 47.9 21.6 47.9 48v606c0 26.5-21.5 48-48 48l-111 0.6c-17.7 0.1-31.9 14.5-31.8 32.2 0.1 17.6 14.4 31.8 32 31.8h0.2l110.8-0.6c61.7-0.1 111.9-50.3 111.9-112V209C927 147.2 876.8 97 815 97zM489.4 406.4c12.5 12.5 32.8 12.5 45.3 0l116-116c12.5-12.5 12.5-32.8 0-45.3-6.2-6.2-14.4-9.4-22.6-9.4s-16.4 3.1-22.6 9.4l-61.2 61.2V96c0-17.7-14.3-32-32-32s-32 14.3-32 32v210.6l-61.4-61.4c-6.2-6.2-14.4-9.4-22.6-9.4s-16.4 3.1-22.6 9.4c-12.5 12.5-12.5 32.8 0 45.3l115.7 115.9zM534.6 618.5c-2.2-2.2-4.5-3.9-7-5.3-4.8-2.7-10.2-4.1-15.6-4.1-8.2 0-16.4 3.1-22.6 9.4l-116 116c-12.5 12.5-12.5 32.8 0 45.3s32.8 12.5 45.3 0l61.2-61.2V929c0 17.7 14.3 32 32 32s32-14.3 32-32V718.3l61.4 61.4c12.5 12.5 32.8 12.5 45.3 0s12.5-32.8 0-45.3l-116-115.9z" p-id="6273" fill="#2c2c2c"></path></svg>