<?xml version="1.0" standalone="no"?><!DOCTYPE svg PUBLIC "-//W3C//DTD SVG 1.1//EN" "http://www.w3.org/Graphics/SVG/1.1/DTD/svg11.dtd"><svg t="1630077480304" class="icon" viewBox="0 0 1024 1024" version="1.1" xmlns="http://www.w3.org/2000/svg" p-id="3372" xmlns:xlink="http://www.w3.org/1999/xlink" width="200" height="200"><defs><style type="text/css"></style></defs><path d="M820 100.96a104 104 0 0 1 104 103.84v209.6A149.6 149.6 0 0 1 880 520.32l-77.76 75.68a34.56 34.56 0 0 1-53.28-44.16l3.84-3.84 77.76-75.68A81.28 81.28 0 0 0 854.24 416V204.96a34.72 34.72 0 0 0-34.72-34.72H610.24a80 80 0 0 0-57.12 23.68L178.08 569.6a23.36 23.36 0 0 0 0 32l244.64 245.28a23.36 23.36 0 0 0 32 0l50.88-50.88a34.56 34.56 0 0 1 48.96 48.96L504.32 896a92.64 92.64 0 0 1-130.72 0L129.12 651.36a92.32 92.32 0 0 1 0-130.56L504.48 145.12a151.04 151.04 0 0 1 106.24-44z m-176 164.16A115.36 115.36 0 1 1 528 380.48a115.84 115.84 0 0 1 116-115.36z m-0.96 56.16a57.28 57.28 0 0 0-58.24 56.32v1.76a57.44 57.44 0 0 0 56.64 58.24h1.6a57.6 57.6 0 0 0 58.08-56.96v-1.28a57.44 57.44 0 0 0-56.8-58.08h-1.28z" p-id="3373"></path><path d="M534.4 673.6h243.04a26.88 26.88 0 0 1 30.4 22.88 29.6 29.6 0 0 1 0 7.52 26.88 26.88 0 0 1-22.88 30.4 29.6 29.6 0 0 1-7.52 0H534.4a26.88 26.88 0 0 1-30.4-22.88 29.6 29.6 0 0 1 0-7.52 26.88 26.88 0 0 1 22.88-30.4 29.6 29.6 0 0 1 7.52 0z" p-id="3374"></path></svg>