<?xml version="1.0" standalone="no"?><!DOCTYPE svg PUBLIC "-//W3C//DTD SVG 1.1//EN" "http://www.w3.org/Graphics/SVG/1.1/DTD/svg11.dtd"><svg t="1630077550960" class="icon" viewBox="0 0 1024 1024" version="1.1" xmlns="http://www.w3.org/2000/svg" p-id="6155" xmlns:xlink="http://www.w3.org/1999/xlink" width="200" height="200"><defs><style type="text/css"></style></defs><path d="M981.312 704c23.488 0 42.688 9.728 42.688 33.152 0 23.488-19.2 30.848-42.688 30.848H129.792l191.36 188.032c16.64 16.704 24.768 38.784 8.128 55.488a42.752 42.752 0 0 1-60.288 0C137.216 877.952 55.36 796.736 23.296 768 3.2 749.888 0 736.64 0 731.52c0-25.472 24.896-27.52 42.688-27.52h938.624zM1024 295.808v2.88c0 1.92-0.64 12.8-3.264 16-6.208 7.424-24.768 6.08-42.56 6.08H39.552C16 320.768 0 319.296 0 295.808S19.2 256 42.688 256h850.432l-183.744-183.232c-16.64-16.576-31.616-44.224-14.72-60.352a43.264 43.264 0 0 1 60.352 0l256.512 255.808c8.064 8 12.544 16.192 12.48 27.584z" fill="#000000" p-id="6156"></path></svg>