<?xml version="1.0" standalone="no"?><!DOCTYPE svg PUBLIC "-//W3C//DTD SVG 1.1//EN" "http://www.w3.org/Graphics/SVG/1.1/DTD/svg11.dtd"><svg t="1629456018250" class="icon" viewBox="0 0 1030 1024" version="1.1" xmlns="http://www.w3.org/2000/svg" p-id="3905" xmlns:xlink="http://www.w3.org/1999/xlink" width="201.171875" height="200"><defs><style type="text/css"></style></defs><path d="M566.613 512l279.894-279.893c13.653-13.654 13.653-34.134 0-47.787-13.654-13.653-34.134-13.653-47.787 0L512 457.387 238.933 184.32c-13.653-13.653-34.133-13.653-47.786 0-13.654 13.653-13.654 34.133 0 47.787L471.04 512 191.147 791.893c-13.654 13.654-13.654 34.134 0 47.787 13.653 13.653 34.133 13.653 47.786 0l279.894-279.893L798.72 839.68c13.653 13.653 34.133 13.653 47.787 0 13.653-13.653 13.653-34.133 0-47.787L566.613 512z m0 0" p-id="3906"></path></svg>